<?xml version="1.0" encoding="utf-8"?>
<!-- Generator: Adobe Illustrator 21.0.0, SVG Export Plug-In . SVG Version: 6.00 Build 0)  -->
<svg version="1.1" id="Capa_1" xmlns="http://www.w3.org/2000/svg" xmlns:xlink="http://www.w3.org/1999/xlink" x="0px" y="0px"
	 viewBox="0 0 512 512" style="enable-background:new 0 0 512 512;" xml:space="preserve">
<style type="text/css">
	.st0{fill:#3E3E3E;}
</style>
<g>
	<g>
		<path class="st0" d="M384,288V53.3C384,23.9,360.1,0,330.7,0H96c-2.8,0-5.5,1.1-7.5,3.1L3.1,88.5c-2,2-3.1,4.7-3.1,7.5v362.7
			C0,488.1,23.9,512,53.3,512h277.3c29.4,0,53.3-23.9,53.3-53.3v-21.3h-21.3v21.3c0,17.7-14.3,32-32,32H53.3c-17.7,0-32-14.3-32-32
			V100.4l79.1-79.1h230.3c17.7,0,32,14.3,32,32V288H384z"/>
	</g>
</g>
<g>
	<g>
		<path class="st0" d="M85.3,10.7v64c0,5.9-4.8,10.7-10.7,10.7H53.3v21.3h21.3c17.7,0,32-14.3,32-32v-64
			C106.7,10.7,85.3,10.7,85.3,10.7z"/>
	</g>
</g>
<g>
	<g>
		<path class="st0" d="M508.9,256.7l-29.5-29.5c-4.2-4.2-10.9-4.2-15.1,0L301.8,389.6c0,0,0,0,0,0c-4.2,4.2-4.2,10.9,0,15.1
			l29.5,29.5c2,2,4.7,3.1,7.5,3.1c2.8,0,5.5-1.1,7.5-3.1l162.5-162.5c0,0,0,0,0,0C513,267.6,513,260.8,508.9,256.7z M338.9,411.6
			l-14.5-14.5l147.4-147.4l14.5,14.5L338.9,411.6z"/>
	</g>
</g>
<g>
	<g>
		<path class="st0" d="M320,416v-21.3h-21.3v32c0,5.9,4.8,10.7,10.7,10.7h32V416L320,416L320,416z"/>
	</g>
</g>
<g>
	<g>
		<path class="st0" d="M309.3,42.7H288V64h21.3c5.9,0,10.7,4.8,10.7,10.7V96h21.3V74.7C341.3,57,327,42.7,309.3,42.7z"/>
	</g>
</g>
<g>
	<g>
		<rect x="245.3" y="42.7" class="st0" width="21.3" height="21.3"/>
	</g>
</g>
<g>
	<g>
		<path class="st0" d="M128,138.7H64c-5.9,0-10.7,4.8-10.7,10.7v64c0,5.9,4.8,10.7,10.7,10.7h64c5.9,0,10.7-4.8,10.7-10.7v-64
			C138.7,143.4,133.9,138.7,128,138.7z M117.3,202.7H74.7V160h42.7L117.3,202.7L117.3,202.7z"/>
	</g>
</g>
<g>
	<g>
		<path class="st0" d="M128,245.3H64c-5.9,0-10.7,4.8-10.7,10.7v64c0,5.9,4.8,10.7,10.7,10.7h64c5.9,0,10.7-4.8,10.7-10.7v-64
			C138.7,250.1,133.9,245.3,128,245.3z M117.3,309.3H74.7v-42.7h42.7L117.3,309.3L117.3,309.3z"/>
	</g>
</g>
<g>
	<g>
		<path class="st0" d="M128,352H64c-5.9,0-10.7,4.8-10.7,10.7v64c0,5.9,4.8,10.7,10.7,10.7h64c5.9,0,10.7-4.8,10.7-10.7v-64
			C138.7,356.8,133.9,352,128,352z M117.3,416H74.7v-42.7h42.7L117.3,416L117.3,416z"/>
	</g>
</g>
<g>
	<g>
		<rect x="160" y="149.3" class="st0" width="181.3" height="21.3"/>
	</g>
</g>
<g>
	<g>
		<rect x="160" y="192" class="st0" width="181.3" height="21.3"/>
	</g>
</g>
<g>
	<g>
		<rect x="160" y="256" class="st0" width="181.3" height="21.3"/>
	</g>
</g>
<g>
	<g>
		<rect x="160" y="298.7" class="st0" width="181.3" height="21.3"/>
	</g>
</g>
<g>
	<g>
		<rect x="160" y="362.7" class="st0" width="117.3" height="21.3"/>
	</g>
</g>
<g>
	<g>
		<rect x="160" y="405.3" class="st0" width="117.3" height="21.3"/>
	</g>
</g>
<g>
	<g>
		
			<rect x="50.7" y="170.7" transform="matrix(0.7071 -0.7071 0.7071 0.7071 -100.109 120.9895)" class="st0" width="90.5" height="21.3"/>
	</g>
</g>
<g>
	<g>
		
			<rect x="50.7" y="277.3" transform="matrix(0.7071 -0.7071 0.7071 0.7071 -175.5337 152.2313)" class="st0" width="90.5" height="21.3"/>
	</g>
</g>
<g>
	<g>
		
			<rect x="50.7" y="384" transform="matrix(0.7071 -0.7071 0.7071 0.7071 -250.9587 183.4737)" class="st0" width="90.5" height="21.3"/>
	</g>
</g>
</svg>
