<?xml version="1.0" encoding="utf-8"?>
<!-- Generator: Adobe Illustrator 21.0.0, SVG Export Plug-In . SVG Version: 6.00 Build 0)  -->
<svg version="1.1" id="Capa_1" xmlns="http://www.w3.org/2000/svg" xmlns:xlink="http://www.w3.org/1999/xlink" x="0px" y="0px"
	 viewBox="0 0 512 512" style="enable-background:new 0 0 512 512;" xml:space="preserve">
<style type="text/css">
	.st0{fill:#3E3E3E;}
</style>
<g>
	<g>
		<path class="st0" d="M384,288V53.3C384,23.9,360.1,0,330.7,0H96c-2.8,0-5.5,1.1-7.5,3.1L3.1,88.5c-2,2-3.1,4.7-3.1,7.5v362.7
			C0,488.1,23.9,512,53.3,512h277.3c29.4,0,53.3-23.9,53.3-53.3v-21.3h-21.3v21.3c0,17.7-14.3,32-32,32H53.3c-17.7,0-32-14.3-32-32
			V100.4l79.1-79.1h230.3c17.7,0,32,14.3,32,32V288H384z"/>
	</g>
</g>
<g>
	<g>
		<path class="st0" d="M85.3,10.7v64c0,5.9-4.8,10.7-10.7,10.7H53.3v21.3h21.3c17.7,0,32-14.3,32-32v-64H85.3z"/>
	</g>
</g>
<g>
	<g>
		<path class="st0" d="M508.9,256.7l-29.5-29.5c-4.2-4.2-10.9-4.2-15.1,0L301.8,389.6c-4.2,4.2-4.2,10.9,0,15.1l29.5,29.5
			c2,2,4.7,3.1,7.5,3.1c2.8,0,5.5-1.1,7.5-3.1l162.5-162.5C513,267.6,513,260.8,508.9,256.7z M338.9,411.6l-14.5-14.5l147.4-147.4
			l14.5,14.5L338.9,411.6z"/>
	</g>
</g>
<g>
	<g>
		<path class="st0" d="M320,416v-21.3h-21.3v32c0,5.9,4.8,10.7,10.7,10.7h32V416H320z"/>
	</g>
</g>
<g>
	<g>
		<path class="st0" d="M309.3,42.7H288V64h21.3c5.9,0,10.7,4.8,10.7,10.7V96h21.3V74.7C341.3,57,327,42.7,309.3,42.7z"/>
	</g>
</g>
<g>
	<g>
		<path class="st0" d="M277.3,149.3H106.7c-5.9,0-10.7,4.8-10.7,10.7v149.3c0,4.1,2.3,7.8,6,9.6l74.2,36.3c4.9,2.8,10.4,4.3,16,4.3
			l0,0c5.3,0,10.5-1.3,15.1-3.9l74.8-36.6c3.7-1.8,6-5.5,6-9.6V160C288,154.1,283.2,149.3,277.3,149.3z M266.7,302.7l-69.4,34
			c-3.5,1.9-7.8,1.8-11.2-0.3l-68.8-33.7v-132h149.3L266.7,302.7L266.7,302.7z"/>
	</g>
</g>
<g>
	<g>
		<path class="st0" d="M237.8,207.4l-56.5,56.5l-24.5-24.5l-15.1,15.1l32,32c2,2,4.7,3.1,7.5,3.1c2.8,0,5.5-1.1,7.5-3.1l64-64
			L237.8,207.4z"/>
	</g>
</g>
<g>
	<g>
		<path class="st0" d="M213.3,416c-5.9,0-10.7-4.8-10.7-10.7V384h-21.3v21.3c0,17.7,14.3,32,32,32h64V416H213.3z"/>
	</g>
</g>
<g>
	<g>
		<rect x="245.3" y="42.7" class="st0" width="21.3" height="21.3"/>
	</g>
</g>
</svg>
