<?xml version="1.0" encoding="utf-8"?>
<!-- Generator: Adobe Illustrator 21.0.0, SVG Export Plug-In . SVG Version: 6.00 Build 0)  -->
<svg version="1.1" id="Capa_1" xmlns="http://www.w3.org/2000/svg" xmlns:xlink="http://www.w3.org/1999/xlink" x="0px" y="0px"
	 viewBox="0 0 512 512" style="enable-background:new 0 0 512 512;" xml:space="preserve">
<style type="text/css">
	.st0{fill:#3E3E3E;}
</style>
<g>
	<g>
		<path class="st0" d="M501.3,213.3H472c-0.6-1.5-1.2-3-1.9-4.4l20.8-20.8c4.2-4.2,4.2-10.9,0-15.1l-45.3-45.3
			c-4.2-4.2-10.9-4.2-15.1,0l-20.8,20.8c-1.5-0.7-3-1.3-4.4-1.9v-29.4c0-5.9-4.8-10.7-10.7-10.7h-64c-5.9,0-10.7,4.8-10.7,10.7v29.4
			c-1.5,0.6-3,1.2-4.4,1.9l-20.8-20.8c-4.2-4.2-10.9-4.2-15.1,0L234.4,173c-4.2,4.2-4.2,10.9,0,15.1l20.8,20.8
			c-0.7,1.5-1.3,3-1.9,4.4H224c-5.9,0-10.7,4.8-10.7,10.7v64c0,5.9,4.8,10.7,10.7,10.7h29.4c0.6,1.5,1.2,3,1.9,4.4l-20.8,20.8
			c-4.2,4.2-4.2,10.9,0,15.1l45.3,45.3c4.2,4.2,10.9,4.2,15.1,0l20.8-20.8c1.5,0.7,3,1.3,4.4,1.9v29.4c0,5.9,4.8,10.7,10.7,10.7h64
			c5.9,0,10.7-4.8,10.7-10.7v-29.4c1.5-0.6,3-1.2,4.4-1.9l20.8,20.8c4.2,4.2,10.9,4.2,15.1,0l45.3-45.3c4.2-4.2,4.2-10.9,0-15.1
			l-20.8-20.8c0.7-1.5,1.3-3,1.9-4.4h29.4c5.9,0,10.7-4.8,10.7-10.7v-64C512,218.1,507.2,213.3,501.3,213.3z M490.7,277.3h-26.2
			c-4.7,0-8.8,3-10.2,7.5c-1.7,5.4-3.9,10.6-6.5,15.6c-2.2,4.1-1.4,9.2,1.9,12.5l18.6,18.6l-30.2,30.2L419.5,343
			c-3.3-3.3-8.4-4.1-12.5-1.9c-5,2.6-10.2,4.8-15.6,6.5c-4.4,1.4-7.5,5.5-7.5,10.2V384h-42.7l0-26.2c0-4.7-3-8.8-7.5-10.2
			c-5.4-1.7-10.6-3.9-15.6-6.5c-4.1-2.2-9.2-1.4-12.5,1.9l-18.6,18.6l-30.2-30.2l18.6-18.6c3.3-3.3,4.1-8.4,1.9-12.5
			c-2.6-5-4.8-10.2-6.5-15.6c-1.4-4.4-5.5-7.5-10.2-7.5h-26.2v-42.7h26.2c4.7,0,8.8-3,10.2-7.5c1.7-5.4,3.9-10.6,6.5-15.6
			c2.2-4.1,1.4-9.2-1.9-12.5l-18.6-18.6l30.2-30.2l18.6,18.6c3.3,3.3,8.4,4.1,12.5,1.9c5-2.6,10.2-4.8,15.6-6.5
			c4.4-1.4,7.5-5.5,7.5-10.2V128H384v26.2c0,4.7,3,8.8,7.5,10.2c5.4,1.7,10.6,3.9,15.6,6.5c4.1,2.2,9.2,1.4,12.5-1.9l18.6-18.6
			l30.2,30.2l-18.6,18.6c-3.3,3.3-4.1,8.4-1.9,12.5c2.6,5,4.8,10.2,6.5,15.6c1.4,4.4,5.5,7.5,10.2,7.5h26.2L490.7,277.3L490.7,277.3
			z"/>
	</g>
</g>
<g>
	<g>
		<path class="st0" d="M362.7,202.7c-29.5,0-53.3,23.9-53.3,53.3s23.9,53.3,53.3,53.3c29.4,0,53.3-23.9,53.3-53.3
			C416,226.5,392.1,202.7,362.7,202.7z M362.7,288c-17.7,0-32-14.3-32-32s14.3-32,32-32s32,14.3,32,32S380.3,288,362.7,288z"/>
	</g>
</g>
<g>
	<g>
		<path class="st0" d="M384,85.3v-32C384,23.9,360.1,0,330.7,0H96c-2.8,0-5.5,1.1-7.5,3.1L3.1,88.5c-2,2-3.1,4.7-3.1,7.5v362.7
			C0,488.1,23.9,512,53.3,512h277.3c29.4,0,53.3-23.9,53.3-53.3v-32h-21.3v32c0,17.7-14.3,32-32,32H53.3c-17.7,0-32-14.3-32-32
			V100.4l79.1-79.1h230.3c17.7,0,32,14.3,32,32v32H384z"/>
	</g>
</g>
<g>
	<g>
		<path class="st0" d="M85.3,10.7v64c0,5.9-4.8,10.7-10.7,10.7H53.3v21.3h21.3c17.7,0,32-14.3,32-32v-64H85.3z"/>
	</g>
</g>
<g>
	<g>
		<rect x="96" y="245.3" class="st0" width="96" height="21.3"/>
	</g>
</g>
<g>
	<g>
		<rect x="53.3" y="245.3" class="st0" width="21.3" height="21.3"/>
	</g>
</g>
<g>
	<g>
		<rect x="117.3" y="320" class="st0" width="85.3" height="21.3"/>
	</g>
</g>
<g>
	<g>
		<rect x="74.7" y="320" class="st0" width="21.3" height="21.3"/>
	</g>
</g>
<g>
	<g>
		<rect x="117.3" y="170.7" class="st0" width="85.3" height="21.3"/>
	</g>
</g>
<g>
	<g>
		<rect x="74.7" y="170.7" class="st0" width="21.3" height="21.3"/>
	</g>
</g>
<g>
	<g>
		<path class="st0" d="M74.7,448c-5.9,0-10.7-4.8-10.7-10.7V416H42.7v21.3c0,17.7,14.3,32,32,32H96V448H74.7z"/>
	</g>
</g>
<g>
	<g>
		<rect x="117.3" y="448" class="st0" width="21.3" height="21.3"/>
	</g>
</g>
</svg>
