<?xml version="1.0" encoding="utf-8"?>
<!-- Generator: Adobe Illustrator 21.0.0, SVG Export Plug-In . SVG Version: 6.00 Build 0)  -->
<svg version="1.1" id="Capa_1" xmlns="http://www.w3.org/2000/svg" xmlns:xlink="http://www.w3.org/1999/xlink" x="0px" y="0px"
	 viewBox="0 0 512 512" style="enable-background:new 0 0 512 512;" xml:space="preserve">
<style type="text/css">
	.st0{fill:#3E3E3E;}
</style>
<g>
	<g>
		<path class="st0" d="M384,149.4v-96c0-29.4-23.9-53.3-53.3-53.3H96c-2.8,0-5.5,1.1-7.5,3.1L3.1,88.5c-2,2-3.1,4.7-3.1,7.5v362.7
			C0,488.1,23.9,512,53.3,512h277.3c29.4,0,53.3-23.9,53.3-53.3v-53.3h-21.3v53.3c0,17.7-14.3,32-32,32H53.3c-17.7,0-32-14.3-32-32
			V100.4l79.1-79.1h230.3c17.7,0,32,14.3,32,32v96H384z"/>
	</g>
</g>
<g>
	<g>
		<path class="st0" d="M85.3,10.7v64c0,5.9-4.8,10.7-10.7,10.7H53.3v21.3h21.3c17.7,0,32-14.3,32-32v-64
			C106.7,10.7,85.3,10.7,85.3,10.7z"/>
	</g>
</g>
<g>
	<g>
		<path class="st0" d="M309.3,42.7H288V64h21.3c5.9,0,10.7,4.8,10.7,10.7V96h21.3V74.7C341.3,57,327,42.7,309.3,42.7z"/>
	</g>
</g>
<g>
	<g>
		<rect x="245.3" y="42.7" class="st0" width="21.3" height="21.3"/>
	</g>
</g>
<g>
	<g>
		<path class="st0" d="M389.4,186.8c-24-24-56.6-37.5-90.5-37.5c-70.7,0-128.1,57.3-128.1,128.1S228,405.5,298.8,405.5
			c34.1,0.1,66.8-13.5,90.9-37.6C439.6,317.8,439.4,236.7,389.4,186.8z M299,384.1c-58.9,0.1-106.7-47.7-106.8-106.6
			c-0.1-58.9,47.6-106.7,106.6-106.8c28.3-0.1,55.5,11.2,75.5,31.2c20,20,31.2,47.1,31.3,75.3C405.6,336.2,357.9,384,299,384.1z"/>
	</g>
</g>
<g>
	<g>
		<path class="st0" d="M502.7,436l-60.4-60.4c-4.2-4.2-10.9-4.2-15.1,0L397,405.8c0,0,0,0,0,0c-4.2,4.2-4.2,10.9,0,15.1l60.4,60.4
			c6,6,14.1,9.4,22.6,9.3l0,0c8.5,0,16.7-3.4,22.7-9.4C515.2,468.8,515.2,448.5,502.7,436z M487.6,466.2L487.6,466.2
			C487.5,466.2,487.5,466.2,487.6,466.2c-4.2,4.1-11,4.1-15.1,0l-52.9-52.9l15.1-15.1l52.9,52.9C491.7,455.3,491.7,462,487.6,466.2
			l7.6,7.5L487.6,466.2z"/>
	</g>
</g>
<g>
	<g>
		
			<rect x="451.1" y="440.4" transform="matrix(0.7071 -0.7071 0.7071 0.7071 -180.6082 466.1755)" class="st0" width="42.7" height="21.3"/>
	</g>
</g>
<g>
	<g>
		
			<rect x="390" y="352.7" transform="matrix(0.7071 -0.7071 0.7071 0.7071 -150.9145 394.4253)" class="st0" width="21.3" height="53.4"/>
	</g>
</g>
<g>
	<g>
		<path class="st0" d="M298.7,192v21.3c35.3,0,64,28.7,64,64H384C383.9,230.2,345.8,192.1,298.7,192z"/>
	</g>
</g>
<g>
	<g>
		<path class="st0" d="M298.7,234.7c-23.6,0-42.7,19.1-42.7,42.7s19.1,42.7,42.7,42.7s42.7-19.1,42.7-42.7S322.2,234.7,298.7,234.7z
			 M298.7,298.7c-11.8,0-21.3-9.6-21.3-21.3s9.6-21.3,21.3-21.3s21.3,9.6,21.3,21.3C320,289.1,310.4,298.7,298.7,298.7z"/>
	</g>
</g>
<g>
	<g>
		
			<rect x="250.7" y="217.4" transform="matrix(0.7071 -0.7071 0.7071 0.7071 -93.1759 255.0919)" class="st0" width="21.3" height="45.3"/>
	</g>
</g>
<g>
	<g>
		
			<rect x="165.3" y="132.1" transform="matrix(0.7071 -0.7071 0.7071 0.7071 -57.8296 169.7618)" class="st0" width="21.3" height="45.3"/>
	</g>
</g>
<g>
	<g>
		<path class="st0" d="M149.3,96c-17.7,0-32,14.3-32,32s14.3,32,32,32s32-14.3,32-32S167,96,149.3,96z M149.3,138.7
			c-5.9,0-10.7-4.8-10.7-10.7c0-5.9,4.8-10.7,10.7-10.7c5.9,0,10.7,4.8,10.7,10.7C160,133.9,155.2,138.7,149.3,138.7z"/>
	</g>
</g>
<g>
	<g>
		<path class="st0" d="M149.3,384c-17.7,0-32,14.3-32,32s14.3,32,32,32s32-14.3,32-32S167,384,149.3,384z M149.3,426.7
			c-5.9,0-10.7-4.8-10.7-10.7s4.8-10.7,10.7-10.7c5.9,0,10.7,4.8,10.7,10.7C160,421.9,155.2,426.7,149.3,426.7z"/>
	</g>
</g>
<g>
	<g>
		
			<rect x="238.7" y="304" transform="matrix(0.7071 -0.7071 0.7071 0.7071 -145.9666 276.956)" class="st0" width="45.3" height="21.3"/>
	</g>
</g>
<g>
	<g>
		
			<rect x="153.4" y="378.7" transform="matrix(0.7071 -0.7071 0.7071 0.7071 -223.7617 238.487)" class="st0" width="45.3" height="21.3"/>
	</g>
</g>
</svg>
