<?xml version="1.0" encoding="utf-8"?>
<!-- Generator: Adobe Illustrator 21.0.0, SVG Export Plug-In . SVG Version: 6.00 Build 0)  -->
<svg version="1.1" id="Capa_1" xmlns="http://www.w3.org/2000/svg" xmlns:xlink="http://www.w3.org/1999/xlink" x="0px" y="0px"
	 viewBox="0 0 512 512" style="enable-background:new 0 0 512 512;" xml:space="preserve">
<style type="text/css">
	.st0{fill:#3E3E3E;}
</style>
<g>
	<g>
		<g>
			<path class="st0" d="M330.7,0H96c-2.8,0-5.5,1.1-7.5,3.1L3.1,88.5c-2,2-3.1,4.7-3.1,7.5v362.7C0,488.1,23.9,512,53.3,512h53.3
				v-21.3H53.3c-17.7,0-32-14.3-32-32V100.4l79.1-79.1h230.3c17.7,0,32,14.3,32,32v32H384v-32C384,23.9,360.1,0,330.7,0z"/>
		</g>
	</g>
	<g>
		<g>
			<path class="st0" d="M362.7,234.7v224c0,17.7-14.3,32-32,32h-53.3V512h53.3c29.4,0,53.3-23.9,53.3-53.3v-224L362.7,234.7
				L362.7,234.7z"/>
		</g>
	</g>
	<g>
		<g>
			<path class="st0" d="M85.3,10.7v64c0,5.9-4.8,10.7-10.7,10.7H53.3v21.3h21.3c17.7,0,32-14.3,32-32v-64H85.3z"/>
		</g>
	</g>
	<g>
		<g>
			<path class="st0" d="M508.9,54l-29.5-29.5c0,0,0,0,0,0c-4.2-4.2-10.9-4.2-15.1,0L301.8,186.9c-4.2,4.2-4.2,10.9,0,15.1l29.5,29.5
				c2,2,4.7,3.1,7.5,3.1c2.8,0,5.5-1.1,7.5-3.1L508.9,69.1C513,64.9,513,58.2,508.9,54z M338.9,208.9l-14.5-14.5L471.8,47.1
				l14.5,14.5L338.9,208.9z"/>
		</g>
	</g>
	<g>
		<g>
			<path class="st0" d="M320,213.3V192h-21.3v32c0,5.9,4.8,10.7,10.7,10.7h32v-21.3L320,213.3L320,213.3z"/>
		</g>
	</g>
	<g>
		<g>
			<path class="st0" d="M261.3,277.8c-9.3-1.6-18.8,1.1-26,7.2l-0.6,0.5c-12.1-10.9-30.5-10.9-42.7,0c-8.8-7.6-21-10-32-6.3v-44.5
				c0-1.8-0.1-3.6-0.4-5.3c-2.9-17.4-19.5-29.2-36.9-26.2c-15.6,3-26.9,16.8-26.7,32.7V384c0,41.2,33.4,74.6,74.7,74.7v-21.3
				c-29.4,0-53.3-23.9-53.3-53.3V235.8c-0.2-5.5,3.5-10.3,8.8-11.7c0.6-0.1,1.3-0.2,1.9-0.2c5.9,0,10.7,4.8,10.6,10.7v74.7
				c0,5.9,4.8,10.7,10.7,10.7s10.7-4.8,10.7-10.7s4.8-10.7,10.7-10.7c5.9,0,10.7,4.8,10.7,10.7S186.1,320,192,320
				s10.7-4.8,10.7-10.7s4.8-10.7,10.7-10.7c5.9,0,10.7,4.8,10.7,10.7s4.8,10.7,10.7,10.7c5.9,0,10.7-4.8,10.7-10.7
				c0-0.6,0.1-1.3,0.2-1.9c1-5.8,6.6-9.7,12.4-8.6c5.3,1.3,9,6.2,8.8,11.7V384c0,29.4-23.9,53.3-53.3,53.3v21.3
				c41.2,0,74.6-33.4,74.7-74.7v-73.5C288.2,294.5,276.9,280.8,261.3,277.8z"/>
		</g>
	</g>
	<g>
		<g>
			<rect x="138.7" y="309.3" class="st0" width="21.3" height="32"/>
		</g>
	</g>
	<g>
		<g>
			<rect x="181.3" y="309.3" class="st0" width="21.3" height="32"/>
		</g>
	</g>
	<g>
		<g>
			<rect x="224" y="309.3" class="st0" width="21.3" height="32"/>
		</g>
	</g>
	<g>
		<g>
			<path class="st0" d="M234.7,437.3v53.3h-85.3v-53.3H128v64c0,5.9,4.8,10.7,10.7,10.7h106.7c5.9,0,10.7-4.8,10.7-10.7v-64H234.7z"
				/>
		</g>
	</g>
	<g>
		<g>
			<path class="st0" d="M160,42.7c-17.7,0-32,14.3-32,32s14.3,32,32,32s32-14.3,32-32S177.7,42.7,160,42.7z M160,85.3
				c-5.9,0-10.7-4.8-10.7-10.7S154.1,64,160,64s10.7,4.8,10.7,10.7C170.7,80.6,165.9,85.3,160,85.3z"/>
		</g>
	</g>
	<g>
		<g>
			<path class="st0" d="M234.7,192c-17.7,0-32,14.3-32,32s14.3,32,32,32s32-14.3,32-32S252.3,192,234.7,192z M234.7,234.7
				c-5.9,0-10.7-4.8-10.7-10.7s4.8-10.7,10.7-10.7c5.9,0,10.7,4.8,10.7,10.7S240.6,234.7,234.7,234.7z"/>
		</g>
	</g>
	<g>
		<g>
			<rect x="256" y="213.3" class="st0" width="53.3" height="21.3"/>
		</g>
	</g>
	<g>
		<g>
			<path class="st0" d="M181.3,64L181,85.3c0.4,0,43,3.8,43,117.3h21.3C245.3,65.6,183.9,64,181.3,64z"/>
		</g>
	</g>
	<g>
		<g>
			<path class="st0" d="M309.3,42.7H288V64h21.3c5.9,0,10.7,4.8,10.7,10.7V96h21.3V74.7C341.3,57,327,42.7,309.3,42.7z"/>
		</g>
	</g>
</g>
</svg>
