<?xml version="1.0" encoding="utf-8"?>
<!-- Generator: Adobe Illustrator 21.0.0, SVG Export Plug-In . SVG Version: 6.00 Build 0)  -->
<svg version="1.1" id="Capa_1" xmlns="http://www.w3.org/2000/svg" xmlns:xlink="http://www.w3.org/1999/xlink" x="0px" y="0px"
	 viewBox="0 0 512 512" style="enable-background:new 0 0 512 512;" xml:space="preserve">
<style type="text/css">
	.st0{fill:#3E3E3E;}
</style>
<g>
	<g>
		<path class="st0" d="M426.7,394.7v64c0,17.7-14.3,32-32,32H117.3c-17.7,0-32-14.3-32-32V341.3H64v117.3
			c0,29.4,23.9,53.3,53.3,53.3h277.3c29.4,0,53.3-23.9,53.3-53.3v-64L426.7,394.7L426.7,394.7z"/>
	</g>
</g>
<g>
	<g>
		<path class="st0" d="M394.7,0H160c-2.8,0-5.5,1.1-7.5,3.1L67.1,88.5c-2,2-3.1,4.7-3.1,7.5v42.7h21.3v-38.3l79.1-79.1h230.3
			c17.7,0,32,14.3,32,32v149.3H448V53.3C448,23.9,424.1,0,394.7,0z"/>
	</g>
</g>
<g>
	<g>
		<path class="st0" d="M149.3,10.7v64c0,5.9-4.8,10.7-10.7,10.7h-21.3v21.3h21.3c17.7,0,32-14.3,32-32v-64H149.3z"/>
	</g>
</g>
<g>
	<g>
		<path class="st0" d="M373.3,42.7H352V64h21.3c5.9,0,10.7,4.8,10.7,10.7V96h21.3V74.7C405.3,57,391,42.7,373.3,42.7z"/>
	</g>
</g>
<g>
	<g>
		<rect x="309.3" y="42.7" class="st0" width="21.3" height="21.3"/>
	</g>
</g>
<g>
	<g>
		<path class="st0" d="M266.7,160H32c-17.7,0-32,14.3-32,32v85.3c0,17.7,14.3,32,32,32h48.9l50.2,50.2c2,2,4.7,3.1,7.5,3.1
			c1.4,0,2.8-0.3,4.1-0.8c4-1.7,6.6-5.5,6.6-9.9v-42.7h117.3c17.7,0,32-14.3,32-32V192C298.7,174.3,284.3,160,266.7,160z
			 M277.3,277.3c0,5.9-4.8,10.7-10.7,10.7h-128c-5.9,0-10.7,4.8-10.7,10.7v27.6l-35.1-35.1c-2-2-4.7-3.1-7.5-3.1H32
			c-5.9,0-10.7-4.8-10.7-10.7V192c0-5.9,4.8-10.7,10.7-10.7h234.7c5.9,0,10.7,4.8,10.7,10.7L277.3,277.3L277.3,277.3z"/>
	</g>
</g>
<g>
	<g>
		<path class="st0" d="M480,224H320v21.3h160c5.9,0,10.7,4.8,10.7,10.7v85.3c0,5.9-4.8,10.7-10.7,10.7h-85.3c-2.8,0-5.5,1.1-7.5,3.1
			l-45.8,45.8v-38.3c0-5.9-4.8-10.7-10.7-10.7h-85.3c-5.9,0-10.7-4.8-10.7-10.7v-10.7h-21.3v10.7c0,17.7,14.3,32,32,32H320v53.3
			c0,4.3,2.6,8.2,6.6,9.9c1.3,0.5,2.7,0.8,4.1,0.8c2.8,0,5.5-1.1,7.5-3.1l60.9-60.9H480c17.7,0,32-14.3,32-32V256
			C512,238.3,497.7,224,480,224z"/>
	</g>
</g>
<g>
	<g>
		<rect x="53.3" y="224" class="st0" width="21.3" height="21.3"/>
	</g>
</g>
<g>
	<g>
		<rect x="96" y="224" class="st0" width="149.3" height="21.3"/>
	</g>
</g>
<g>
	<g>
		<rect x="320" y="288" class="st0" width="138.7" height="21.3"/>
	</g>
</g>
</svg>
